<svg xmlns="http://www.w3.org/2000/svg" viewBox="0 0 1024 1024">
  <defs>
    <linearGradient id="qb" x1="0" y1="0" x2="0" y2="1">
      <stop offset="0" stop-color="#16475a"></stop>
      <stop offset="1" stop-color="#0a2632"></stop>
    </linearGradient>
    <linearGradient id="qn" x1="0" y1="0" x2="1" y2="1">
      <stop offset="0" stop-color="#9fe9f5"></stop>
      <stop offset="1" stop-color="#3cc2dc"></stop>
    </linearGradient>
  </defs>
  <rect width="1024" height="1024" fill="url(#qb)"></rect>
  
  <path d="M 232 640 A 280 280 0 0 1 792 640" fill="none" stroke="rgba(255,255,255,0.08)" stroke-width="100" stroke-linecap="round"></path>
  <path d="M 232 640 A 280 280 0 0 1 792 640" fill="none" stroke="url(#qn)" stroke-width="100" stroke-linecap="round" stroke-dasharray="660" stroke-dashoffset="200"></path>
  
  <g stroke="rgba(255,255,255,0.5)" stroke-width="6" stroke-linecap="round">
    <line x1="232" y1="640" x2="200" y2="640"></line>
    <line x1="312" y1="430" x2="288" y2="408"></line>
    <line x1="512" y1="332" x2="512" y2="296"></line>
    <line x1="712" y1="430" x2="736" y2="408"></line>
    <line x1="792" y1="640" x2="824" y2="640"></line>
  </g>
  
  <g transform="rotate(-20 512 640)">
    <line x1="512" y1="640" x2="512" y2="370" stroke="#f5fafc" stroke-width="14" stroke-linecap="round"></line>
    <circle cx="512" cy="640" r="32" fill="#f5fafc"></circle>
    <circle cx="512" cy="640" r="14" fill="#0a2632"></circle>
  </g>
  
  <text x="512" y="772" text-anchor="middle" font-family="-apple-system, SF Pro Display, Inter, sans-serif" font-size="84" font-weight="700" fill="#e7f4f8" letter-spacing="-2">78</text>
</svg>